<svg width="22" height="22" viewBox="0 0 22 22" fill="none" xmlns="http://www.w3.org/2000/svg">
<path d="M2.16526 10.0737L0 6.3499H1.2436V1.92876e-05H12.4381V1.75766H2.92949V6.34986H4.17309L2.16526 10.0737ZM15.0712 8.65641H13.0495L16.7895 0H18.2878L21.9931 8.66567H19.9459L19.1748 6.76208H15.8169L15.0712 8.65641ZM16.4606 5.14104H18.5448L17.4981 2.41536L16.4606 5.14104ZM5.21053 14.0105H6.26189V16.8659C6.01441 16.9907 5.74001 17.0527 5.46291 17.0465C5.15406 17.0414 4.85229 16.9526 4.58989 16.7894C4.4689 16.6842 4.3351 16.5947 4.19156 16.5231C4.66875 16.0634 4.92873 15.423 4.90718 14.7608C4.90718 13.3042 3.98086 12.3269 2.59139 12.3269C1.74008 12.3145 0.946367 12.7554 0.507177 13.4849L0.442347 13.5937L1.57243 14.8558L1.68588 14.6381C1.75607 14.4657 1.87578 14.3179 2.03001 14.2137C2.18417 14.1093 2.36584 14.0532 2.55197 14.0522C2.99892 14.0522 3.27913 14.381 3.27913 14.909C3.27913 15.2911 3.15874 15.9326 2.35281 15.9326L1.79241 15.9326V17.6556H2.59834C3.27687 17.6556 3.61965 17.9613 3.61965 18.5657C3.61965 19.0613 3.36952 19.5893 2.67019 19.5893C1.86426 19.5893 1.42432 18.8945 1.30853 18.6629L1.19274 18.4499L9.64382e-06 19.8L0.071776 19.9088C0.636481 20.7932 1.6139 21.3278 2.66314 21.326C4.18228 21.326 5.24988 20.2122 5.28693 18.605C5.60445 18.7147 5.94798 18.7245 6.27114 18.6328V22H7.9779L7.97782 14.0105H9.6105V22H11.3173V14.0105H12.628L12.628 12.3894H5.21048L5.21053 14.0105ZM17.8246 14.8905H19.0682L19.0682 20.0316H13.4362V22H20.754L20.7541 14.8905H22L19.8324 10.7059L17.8246 14.8905Z" fill="white"/>
</svg>
